<?xml version="1.0" standalone="no"?>
<!DOCTYPE svg PUBLIC "-//W3C//DTD SVG 20010904//EN"
 "http://www.w3.org/TR/2001/REC-SVG-20010904/DTD/svg10.dtd">
<svg version="1.0" xmlns="http://www.w3.org/2000/svg"
 width="154.000000pt" height="154.000000pt" viewBox="0 0 154.000000 154.000000"
 preserveAspectRatio="xMidYMid meet">

<g transform="translate(0.000000,154.000000) scale(0.100000,-0.100000)"
fill="#000000" stroke="none">
<path d="M33 1515 c-46 -32 -36 -108 17 -128 17 -7 33 -21 35 -32 3 -11 43
-247 89 -525 l85 -505 -25 -26 c-49 -51 -20 -129 49 -129 41 0 77 35 77 74 0
28 -39 76 -63 76 -12 0 -86 402 -173 950 l-17 106 27 28 28 27 517 -80 c284
-45 522 -81 529 -81 6 0 12 -7 12 -15 0 -26 47 -65 78 -65 61 0 96 86 52 130
-29 29 -83 27 -108 -5 l-20 -25 -531 82 c-513 80 -532 84 -538 106 -11 47 -77
67 -120 37z"/>
<path d="M322 1258 c-8 -11 40 -63 216 -234 l227 -221 62 5 c61 4 64 3 98 -31
29 -29 35 -42 35 -78 0 -137 -162 -171 -226 -47 -18 34 -18 56 0 89 13 26 12
29 -215 255 -212 212 -230 227 -245 212 -15 -15 -13 -21 28 -75 126 -163 222
-350 264 -513 24 -94 26 -116 21 -217 l-6 -112 37 16 c57 24 200 13 275 -20
32 -15 70 -35 85 -46 l28 -19 64 27 65 26 25 72 c34 97 50 112 163 153 l27 10
-45 67 c-71 105 -88 161 -82 268 2 50 8 98 12 108 7 16 0 17 -106 11 -97 -5
-128 -3 -204 15 -127 31 -348 131 -475 215 -126 85 -115 80 -128 64z"/>
<path d="M1313 446 c-35 -13 -70 -29 -78 -36 -8 -7 -24 -43 -35 -80 -22 -75
-35 -90 -103 -120 l-47 -21 24 -32 c13 -18 38 -58 56 -89 17 -32 35 -58 39
-58 3 0 89 82 189 183 l183 183 -70 47 c-39 26 -76 47 -83 46 -7 0 -41 -10
-75 -23z"/>
</g>
</svg>
